<svg version="1.1" id="Warstwa_1" xmlns="http://www.w3.org/2000/svg" x="0" y="0" viewBox="0 0 121.63 121.63" xml:space="preserve"><style>.st0{fill:#333}.st1{fill:#d9d9d9}</style><path class="st0" d="M47.19 70.13V62.8c-1.66-.07-2.98-1.37-2.98-2.96 0-1.64 1.4-2.98 3.12-2.98H73.2c1.72 0 3.12 1.33 3.12 2.98 0 1.59-1.32 2.89-2.98 2.96v7.33H47.19z"/><path class="st1" d="M73.2 58.36c.89 0 1.62.66 1.62 1.48 0 .81-.73 1.47-1.62 1.47h-1.36v7.33H48.69v-7.33h-1.36c-.89 0-1.62-.66-1.62-1.47 0-.82.73-1.48 1.62-1.48H73.2m0-3H47.33c-2.55 0-4.62 2.01-4.62 4.48 0 1.9 1.24 3.54 2.98 4.18v7.62h29.15v-7.62c1.74-.64 2.98-2.27 2.98-4.18 0-2.47-2.07-4.48-4.62-4.48z"/><path class="st0" d="M16.73 69.6l8.86-18.05V40.99c0-1.32 1.11-2.39 2.48-2.39 1.27 0 2.32.94 2.46 2.13l17.13 3.55-17.12 3.54v3.63l8.91 18.15H16.73z"/><path class="st1" d="M28.07 40.09c.54 0 .97.4.97.89v.97l11.22 2.32-11.22 2.33v5.2l8 16.3h-17.9l7.95-16.2V40.99c0-.5.44-.9.98-.9m0-3c-2.19 0-3.98 1.75-3.98 3.89V51.2l-7.64 15.58-2.12 4.32h27.52l-2.12-4.32-7.69-15.68v-2.06l8.83-1.83 14.19-2.94-14.19-2.94-9.15-1.9a4.007 4.007 0 00-3.65-2.34z"/><path class="st0" d="M81.07 69.6l8.88-18.09V40.99c0-1.32 1.11-2.39 2.48-2.39 1.28 0 2.33.94 2.46 2.13l17.13 3.55-17.12 3.54v3.69l8.88 18.09H81.07z"/><path class="st1" d="M92.43 40.09c.54 0 .98.4.98.89v.97l11.22 2.32-11.22 2.33v5.26l7.97 16.25h-17.9l7.97-16.25V40.99c0-.5.44-.9.98-.9m0-3c-2.19 0-3.98 1.75-3.98 3.89v10.17l-7.66 15.62-2.12 4.32h27.52l-2.12-4.32-7.66-15.62v-2.12l8.83-1.83 14.19-2.94-14.19-2.94-9.15-1.9a4.03 4.03 0 00-3.66-2.33z"/><path class="st0" d="M68.23 106.96v-7.12l-.01-1.5v-7.29c0-3.93-3.58-7.13-7.97-7.13-4.4 0-7.97 3.2-7.97 7.13v8.79h-.01v7.12H17.99V75.02c-1.42-.28-2.49-1.48-2.49-2.92 0-1.64 1.4-2.97 3.12-2.97h18.93c1.72 0 3.12 1.33 3.12 2.97 0 .25-.03.5-.1.73.29-.08.59-.13.91-.14v-.62c0-1.62 1.4-2.94 3.12-2.94 1.71 0 3.11 1.32 3.11 2.94v.62h.18v-.62c0-1.62 1.4-2.94 3.12-2.94s3.12 1.32 3.12 2.94v.62h.11v-.62c0-1.62 1.4-2.94 3.12-2.94 1.3 0 2.42.76 2.89 1.83.46-1.07 1.58-1.83 2.89-1.83 1.72 0 3.12 1.32 3.12 2.94v.62h.11v-.62c0-1.62 1.4-2.94 3.12-2.94s3.12 1.32 3.12 2.94v.62h.18v-.62c0-1.62 1.4-2.94 3.11-2.94 1.72 0 3.12 1.32 3.12 2.94v.62c.31.01.62.06.91.14a2.92 2.92 0 01-.09-.73c0-1.64 1.4-2.97 3.12-2.97h18.93c1.72 0 3.12 1.33 3.12 2.97 0 1.44-1.07 2.64-2.49 2.92v31.94H68.23zm14.09-5.95V75.02l-.15-.03c.08.28.13.57.13.88v25.15h.02zm-44.12 0V75.86c0-.3.05-.6.13-.88l-.15.03V101h.02zm55.24-12.89v-4.91a1.071 1.071 0 00-2.14 0v4.91h2.14zm-64.34 0v-4.91c0-.59-.48-1.07-1.07-1.07-.6 0-1.08.48-1.08 1.07v4.91h2.15z"/><path class="st1" d="M101.88 70.63c.9 0 1.62.66 1.62 1.47 0 .82-.72 1.48-1.62 1.48h-.87v31.88H69.73v-7.12h-.01v-7.29c0-4.76-4.24-8.63-9.47-8.63s-9.47 3.87-9.47 8.63v7.29h-.01v7.12H19.49V73.58h-.87c-.9 0-1.62-.66-1.62-1.48 0-.81.72-1.47 1.62-1.47h18.93c.9 0 1.62.66 1.62 1.47 0 .82-.72 1.48-1.62 1.48h-.87v28.93h3.02V75.86c0-.92.84-1.67 1.87-1.67h1.41v-2.12c0-.79.72-1.44 1.62-1.44.89 0 1.61.65 1.61 1.44v2.12h3.18v-2.12c0-.79.73-1.44 1.62-1.44.89 0 1.62.65 1.62 1.44v2.12h3.11v-2.12c0-.79.73-1.44 1.62-1.44s1.62.65 1.62 1.44v2.12h2.54v-2.12c0-.79.73-1.44 1.62-1.44.89 0 1.62.65 1.62 1.44v2.12h3.11v-2.12c0-.79.73-1.44 1.62-1.44.89 0 1.62.65 1.62 1.44v2.12h3.18v-2.12c0-.79.72-1.44 1.61-1.44.9 0 1.62.65 1.62 1.44v2.12h1.41c1.03 0 1.87.75 1.87 1.67v26.65h3.02V73.58h-.87c-.9 0-1.62-.66-1.62-1.48 0-.81.72-1.47 1.62-1.47h18.93M89.8 89.62h5.14v-6.41a2.57 2.57 0 10-5.14 0v6.41m-64.35 0h5.15v-6.41a2.57 2.57 0 00-2.57-2.57c-1.43 0-2.58 1.15-2.58 2.57v6.41m76.43-21.99H82.95c-1.41 0-2.67.61-3.52 1.58a4.717 4.717 0 00-3.53-1.58c-1.24 0-2.37.48-3.2 1.25a4.708 4.708 0 00-3.21-1.25c-1.23 0-2.35.46-3.17 1.22a4.734 4.734 0 00-6.06-.24 4.73 4.73 0 00-2.89-.98c-1.23 0-2.35.46-3.17 1.22a4.734 4.734 0 00-3.17-1.22c-1.25 0-2.38.48-3.21 1.25a4.701 4.701 0 00-3.2-1.25c-1.41 0-2.68.61-3.53 1.58a4.695 4.695 0 00-3.52-1.58H18.62c-2.55 0-4.62 2.01-4.62 4.47 0 1.73 1.01 3.23 2.49 3.97v32.39h37.28v-7.12l.01-3v-7.29c0-3.1 2.9-5.63 6.47-5.63s6.47 2.53 6.47 5.63v10.29h.01v7.12h37.28V76.07c1.48-.75 2.49-2.25 2.49-3.97 0-2.47-2.07-4.47-4.62-4.47z"/><path class="st0" d="M46.69 56.69l11.1-23.23v-16.4c0-1.31 1.11-2.38 2.48-2.38 1.27 0 2.33.94 2.46 2.13l17.13 3.55-17.12 3.54v9.54l11.1 23.25H46.69z"/><path class="st1" d="M60.27 16.18c.54 0 .97.39.97.88v.97l11.22 2.32-11.22 2.32v11.1l10.22 21.41H49.07L59.29 33.8V17.06c0-.49.44-.88.98-.88m0-3c-2.19 0-3.98 1.74-3.98 3.88v16.06L46.36 53.9l-2.05 4.29h31.91l-2.05-4.29-9.93-20.8v-7.98l8.83-1.83 14.19-2.94-14.19-2.94-9.15-1.9c-.61-1.37-2.02-2.33-3.65-2.33z"/></svg>